<svg xmlns="http://www.w3.org/2000/svg" viewBox="0 0 80 80" width="16px" height="16px"><path fill="#8bb7f0" d="M26 14A26 26 0 1 0 26 66A26 26 0 1 0 26 14Z"/><path fill="#f78f8f" d="M54,14c-5.541,0-10.674,1.739-14.893,4.693c0.305,0.186,0.609,0.372,0.893,0.592 C33.363,23.78,29,31.38,29,40s4.363,16.22,11,20.715c-0.305,0.208-0.617,0.38-0.927,0.568C43.299,64.251,48.444,66,54,66 c14.359,0,26-11.641,26-26C80,25.641,68.359,14,54,14z"/><path fill="#8b75a1" d="M40 19.285A11 20.715 0 1 0 40 60.715A11 20.715 0 1 0 40 19.285Z"/><path fill="#c74343" d="M54,14c-5.547,0-10.685,1.743-14.906,4.703c0.309,0.19,0.615,0.385,0.915,0.589 C44.004,16.584,48.82,15,54,15c13.785,0,25,11.215,25,25c0,13.785-11.215,25-25,25c-5.18,0-9.996-1.584-13.991-4.292 c-0.3,0.203-0.606,0.398-0.915,0.589C43.315,64.257,48.453,66,54,66c14.359,0,26-11.641,26-26C80,25.641,68.359,14,54,14z"/><path fill="#4e7ab5" d="M26,14c5.547,0,10.685,1.743,14.906,4.703c-0.309,0.19-0.615,0.385-0.915,0.589 C35.996,16.584,31.18,15,26,15C12.215,15,1,26.215,1,40s11.215,25,25,25c5.18,0,9.996-1.584,13.991-4.292 c0.3,0.203,0.606,0.398,0.915,0.589C36.685,64.257,31.547,66,26,66C11.641,66,0,54.359,0,40C0,25.641,11.641,14,26,14z"/></svg>